# xmcd CD database file
#
# Track frame offsets:
#	150
#	19054
#	48322
#	94320
#	124053
#	143526
#	170967
#	190557
#	225101
#	267312
#
# Disc length: 3863 seconds
#
# Revision: 0
# Processed by: cddbd v1.5.2PL0 Copyright (c) Steve Scherf et al.
# Submitted via: CDex 1.70beta2
#
DISCID=7d0f150a
DTITLE=Various Artist - Live at Ground Zero Vol 2
DYEAR=2009
DGENRE=Blues
TTITLE0=Stick Around- The Insomniacs
TTITLE1=Overnight Sensation- Jackie Payne Steve Edmonson Band
TTITLE2=I'm A New Man- Jason Ricci and New Blood
TTITLE3=Johnny Cochino- The Mannish Boys featuring Kid Ramos
TTITLE4=Mary Jane- The Mannish Boys featuring Bobby Jones
TTITLE5=Broke and Lonely- The Insomniacs
TTITLE6=If You Know- Los Fabulocos
TTITLE7=Slow it Down- Mike Zito
TTITLE8=Lay You Down- Phillip Walker
TTITLE9=Burnin' the Chicken- Los Fabulocos featuring Kid Ramos
EXTD=YEAR: 2009
EXTT0=
EXTT1=
EXTT2=
EXTT3=
EXTT4=
EXTT5=
EXTT6=
EXTT7=
EXTT8=
EXTT9=
PLAYORDER=
